<svg xmlns="http://www.w3.org/2000/svg" width="33" height="48" viewBox="0 0 33 48" fill="none"><mask id="mask0_1_5290" style="mask-type:luminance" maskUnits="userSpaceOnUse" x="0" y="0" width="33" height="48"><path d="M32.2286 0H0V48H32.2286V0Z" fill="white"></path></mask><g mask="url(#mask0_1_5290)"><mask id="mask1_1_5290" style="mask-type:luminance" maskUnits="userSpaceOnUse" x="10" y="32" width="12" height="17"><path d="M21.3212 32.7314H10.7886V48.0914H21.3212V32.7314Z" fill="white"></path></mask><g mask="url(#mask1_1_5290)"><mask id="mask2_1_5290" style="mask-type:luminance" maskUnits="userSpaceOnUse" x="10" y="32" width="12" height="17"><path d="M21.3212 32.7314H10.7886V48.0914H21.3212V32.7314Z" fill="white"></path></mask><g mask="url(#mask2_1_5290)"><mask id="mask3_1_5290" style="mask-type:luminance" maskUnits="userSpaceOnUse" x="10" y="32" width="12" height="17"><path d="M21.2572 32.9143H10.9715V48.3109H21.2572V32.9143Z" fill="white"></path></mask><g mask="url(#mask3_1_5290)"><path fill-rule="evenodd" clip-rule="evenodd" d="M14.0069 36.7269V41.9657L12.0138 43.4286L16.0366 47.296L20.3612 38.3909L18.304 38.9211V34.6057L14.0069 36.7269Z" fill="#0086CB"></path></g></g><mask id="mask4_1_5290" style="mask-type:luminance" maskUnits="userSpaceOnUse" x="10" y="32" width="12" height="17"><path d="M21.3212 32.7314H10.7886V48.0914H21.3212V32.7314Z" fill="white"></path></mask><g mask="url(#mask4_1_5290)"><mask id="mask5_1_5290" style="mask-type:luminance" maskUnits="userSpaceOnUse" x="10" y="32" width="12" height="17"><path d="M21.2572 32.9143H10.9715V48.3109H21.2572V32.9143Z" fill="white"></path></mask><g mask="url(#mask5_1_5290)"><path fill-rule="evenodd" clip-rule="evenodd" d="M14.0069 36.7269V41.9657L12.0138 43.4286L16.0366 47.296L20.3612 38.3909L18.304 38.9211V34.6057L14.0069 36.7269Z" fill="#0086CB"></path></g></g></g><mask id="mask6_1_5290" style="mask-type:luminance" maskUnits="userSpaceOnUse" x="-1" y="-1" width="30" height="41"><path d="M28.3429 -0.182861H-0.182861V39.0949H28.3429V-0.182861Z" fill="white"></path></mask><g mask="url(#mask6_1_5290)"><mask id="mask7_1_5290" style="mask-type:luminance" maskUnits="userSpaceOnUse" x="-1" y="-1" width="30" height="41"><path d="M28.3429 -0.182861H-0.182861V39.0949H28.3429V-0.182861Z" fill="white"></path></mask><g mask="url(#mask7_1_5290)"><mask id="mask8_1_5290" style="mask-type:luminance" maskUnits="userSpaceOnUse" x="-9" y="-9" width="38" height="49"><path d="M13.1686 -8.28334L-8.44006 30.6997L6.55342 39.0107L28.1621 0.027678L13.1686 -8.28334Z" fill="white"></path></mask><g mask="url(#mask8_1_5290)"><path fill-rule="evenodd" clip-rule="evenodd" d="M4.15996 33.0057C8.95996 35.6662 1.90168 27.5017 9.63653 14.5371C17.3714 1.57252 28.4251 4.66281 23.3691 1.61823C18.3131 -1.41719 10.9622 0.749663 4.17825 11.9222C-0.621753 19.8125 -0.621753 30.3451 4.17825 33.0057H4.15996Z" fill="#E6F3FA"></path></g></g><mask id="mask9_1_5290" style="mask-type:luminance" maskUnits="userSpaceOnUse" x="-1" y="-1" width="30" height="41"><path d="M28.3429 -0.182861H-0.182861V39.0949H28.3429V-0.182861Z" fill="white"></path></mask><g mask="url(#mask9_1_5290)"><mask id="mask10_1_5290" style="mask-type:luminance" maskUnits="userSpaceOnUse" x="-9" y="-9" width="38" height="49"><path d="M13.1686 -8.28334L-8.44006 30.6997L6.55342 39.0107L28.1621 0.027678L13.1686 -8.28334Z" fill="white"></path></mask><g mask="url(#mask10_1_5290)"><path fill-rule="evenodd" clip-rule="evenodd" d="M4.15996 33.0057C8.95996 35.6662 1.90168 27.5017 9.63653 14.5371C17.3714 1.57252 28.4251 4.66281 23.3691 1.61823C18.3131 -1.41719 10.9622 0.749663 4.17825 11.9222C-0.621753 19.8125 -0.621753 30.3451 4.17825 33.0057H4.15996Z" fill="#E6F3FA"></path></g></g></g><mask id="mask11_1_5290" style="mask-type:luminance" maskUnits="userSpaceOnUse" x="-1" y="-1" width="34" height="50"><path d="M32.2926 -0.182861H-0.182861V48.0914H32.2926V-0.182861Z" fill="white"></path></mask><g mask="url(#mask11_1_5290)"><mask id="mask12_1_5290" style="mask-type:luminance" maskUnits="userSpaceOnUse" x="-1" y="-1" width="34" height="50"><path d="M32.2926 -0.182861H-0.182861V48.0914H32.2926V-0.182861Z" fill="white"></path></mask><g mask="url(#mask12_1_5290)"><mask id="mask13_1_5290" style="mask-type:luminance" maskUnits="userSpaceOnUse" x="-1" y="-1" width="34" height="50"><path d="M32.512 -0.402344H-0.402283V48.3108H32.512V-0.402344Z" fill="white"></path></mask><g mask="url(#mask13_1_5290)"><path fill-rule="evenodd" clip-rule="evenodd" d="M30.6834 12.3611C30.7017 21.7234 22.4823 34.6423 13.44 35.7943C10.7703 36.1417 8.45713 35.3737 7.11313 32.9783C5.94284 30.8754 5.75999 27.8217 5.9977 25.3988C6.71999 17.9383 11.9863 9.17942 18.4777 5.42171L18.5051 5.40342C21.1657 3.88571 24.4571 2.98056 27.1177 4.48913L27.1634 4.50742C29.4217 5.82399 30.6743 8.60342 30.6834 12.3428V12.3611ZM19.7394 38.976L15.8903 46.7931L12.0046 43.4377L13.7691 42.4228C13.9428 42.3223 14.0251 42.176 14.0251 41.984L14.0068 36.736C15.1863 36.544 16.7131 36.0503 18.0297 35.3646L18.048 39.0948C18.048 39.2868 18.1303 39.4331 18.304 39.5337C18.4686 39.6343 18.6423 39.6251 18.8068 39.5337L19.7486 38.9851L19.7394 38.976ZM7.54284 35.1543L7.67084 35.2823C8.31084 35.8217 9.03313 36.2331 9.81941 36.5074C10.6057 36.7817 11.4286 36.9097 12.2697 36.8823C12.5074 36.8823 12.7543 36.8457 13.0011 36.8366L13.0194 41.6914L10.8891 42.9166C10.816 42.9623 10.7611 43.0171 10.7246 43.0811C10.688 43.1451 10.6606 43.2274 10.6514 43.3006C10.6514 43.3828 10.6514 43.456 10.688 43.5291C10.7154 43.6023 10.7611 43.6663 10.8251 43.7211L15.7166 47.9634C15.9543 48.1737 16.3474 48.1006 16.4937 47.808L21.3577 37.9337C21.4674 37.7143 21.4308 37.5223 21.248 37.3486C21.0651 37.1748 20.8731 37.1566 20.6628 37.2846L19.0354 38.2263V34.7794C26.048 30.4731 31.7074 20.4891 31.68 12.3611C31.68 8.24685 30.2354 5.15656 27.6571 3.65714L27.6114 3.63885L23.1406 1.03313C20.5348 -0.493723 17.0971 -0.173722 13.4766 1.91999C13.3668 1.99313 13.3028 2.09371 13.2663 2.22171C13.2388 2.34971 13.2571 2.46856 13.3211 2.58742C13.3851 2.69713 13.4857 2.77942 13.6046 2.81599C13.7234 2.85256 13.8514 2.84342 13.9703 2.78856C17.2617 0.877706 20.3428 0.557707 22.6286 1.90171L24.0457 2.72456C21.9428 2.72456 19.8126 3.51085 17.984 4.55313C11.2 8.46628 5.7417 17.5451 4.98284 25.3714C4.75427 27.8217 4.93713 30.8846 6.02513 33.1063V33.1246L4.88227 32.4571C2.61484 31.1314 1.38056 28.3428 1.37141 24.5943C1.35313 18.8343 4.31541 11.904 8.91427 6.92113C9.01484 6.82056 9.0697 6.70171 9.0697 6.55542C9.0697 6.40913 9.01484 6.29028 8.90513 6.18971C8.79541 6.08913 8.67656 6.05256 8.53027 6.06171C8.38399 6.07085 8.26513 6.13485 8.1737 6.24456C3.40113 11.4011 0.338272 18.6057 0.356557 24.5943C0.3657 28.7086 1.79199 31.808 4.37027 33.3166L7.52456 35.1451L7.54284 35.1543Z" fill="#545454"></path></g></g><mask id="mask14_1_5290" style="mask-type:luminance" maskUnits="userSpaceOnUse" x="-1" y="-1" width="34" height="50"><path d="M32.2926 -0.182861H-0.182861V48.0914H32.2926V-0.182861Z" fill="white"></path></mask><g mask="url(#mask14_1_5290)"><mask id="mask15_1_5290" style="mask-type:luminance" maskUnits="userSpaceOnUse" x="-1" y="-1" width="34" height="50"><path d="M32.512 -0.402344H-0.402283V48.3108H32.512V-0.402344Z" fill="white"></path></mask><g mask="url(#mask15_1_5290)"><path fill-rule="evenodd" clip-rule="evenodd" d="M30.6834 12.3611C30.7017 21.7234 22.4823 34.6423 13.44 35.7943C10.7703 36.1417 8.45713 35.3737 7.11313 32.9783C5.94284 30.8754 5.75999 27.8217 5.9977 25.3988C6.71999 17.9383 11.9863 9.17942 18.4777 5.42171L18.5051 5.40342C21.1657 3.88571 24.4571 2.98056 27.1177 4.48913L27.1634 4.50742C29.4217 5.82399 30.6743 8.60342 30.6834 12.3428V12.3611ZM19.7394 38.976L15.8903 46.7931L12.0046 43.4377L13.7691 42.4228C13.9428 42.3223 14.0251 42.176 14.0251 41.984L14.0068 36.736C15.1863 36.544 16.7131 36.0503 18.0297 35.3646L18.048 39.0948C18.048 39.2868 18.1303 39.4331 18.304 39.5337C18.4686 39.6343 18.6423 39.6251 18.8068 39.5337L19.7486 38.9851L19.7394 38.976ZM7.54284 35.1543L7.67084 35.2823C8.31084 35.8217 9.03313 36.2331 9.81941 36.5074C10.6057 36.7817 11.4286 36.9097 12.2697 36.8823C12.5074 36.8823 12.7543 36.8457 13.0011 36.8366L13.0194 41.6914L10.8891 42.9166C10.816 42.9623 10.7611 43.0171 10.7246 43.0811C10.688 43.1451 10.6606 43.2274 10.6514 43.3006C10.6514 43.3828 10.6514 43.456 10.688 43.5291C10.7154 43.6023 10.7611 43.6663 10.8251 43.7211L15.7166 47.9634C15.9543 48.1737 16.3474 48.1006 16.4937 47.808L21.3577 37.9337C21.4674 37.7143 21.4308 37.5223 21.248 37.3486C21.0651 37.1748 20.8731 37.1566 20.6628 37.2846L19.0354 38.2263V34.7794C26.048 30.4731 31.7074 20.4891 31.68 12.3611C31.68 8.24685 30.2354 5.15656 27.6571 3.65714L27.6114 3.63885L23.1406 1.03313C20.5348 -0.493723 17.0971 -0.173722 13.4766 1.91999C13.3668 1.99313 13.3028 2.09371 13.2663 2.22171C13.2388 2.34971 13.2571 2.46856 13.3211 2.58742C13.3851 2.69713 13.4857 2.77942 13.6046 2.81599C13.7234 2.85256 13.8514 2.84342 13.9703 2.78856C17.2617 0.877706 20.3428 0.557707 22.6286 1.90171L24.0457 2.72456C21.9428 2.72456 19.8126 3.51085 17.984 4.55313C11.2 8.46628 5.7417 17.5451 4.98284 25.3714C4.75427 27.8217 4.93713 30.8846 6.02513 33.1063V33.1246L4.88227 32.4571C2.61484 31.1314 1.38056 28.3428 1.37141 24.5943C1.35313 18.8343 4.31541 11.904 8.91427 6.92113C9.01484 6.82056 9.0697 6.70171 9.0697 6.55542C9.0697 6.40913 9.01484 6.29028 8.90513 6.18971C8.79541 6.08913 8.67656 6.05256 8.53027 6.06171C8.38399 6.07085 8.26513 6.13485 8.1737 6.24456C3.40113 11.4011 0.338272 18.6057 0.356557 24.5943C0.3657 28.7086 1.79199 31.808 4.37027 33.3166L7.52456 35.1451L7.54284 35.1543Z" fill="#545454"></path></g></g></g><mask id="mask16_1_5290" style="mask-type:luminance" maskUnits="userSpaceOnUse" x="8" y="2" width="6" height="5"><path d="M13.2023 2.66968H8.81372V6.18054H13.2023V2.66968Z" fill="white"></path></mask><g mask="url(#mask16_1_5290)"><mask id="mask17_1_5290" style="mask-type:luminance" maskUnits="userSpaceOnUse" x="8" y="2" width="6" height="5"><path d="M13.2023 2.66968H8.81372V6.18054H13.2023V2.66968Z" fill="white"></path></mask><g mask="url(#mask17_1_5290)"><mask id="mask18_1_5290" style="mask-type:luminance" maskUnits="userSpaceOnUse" x="8" y="2" width="6" height="5"><path d="M13.0286 2.7428H8.91428V6.17137H13.0286V2.7428Z" fill="white"></path></mask><g mask="url(#mask18_1_5290)"><path fill-rule="evenodd" clip-rule="evenodd" d="M11.4743 3.26394C10.8983 3.7028 10.3406 4.16909 9.80116 4.65366C9.69145 4.74509 9.62745 4.86394 9.61831 5.00109C9.60916 5.14737 9.65488 5.26623 9.7463 5.37594C9.84688 5.48566 9.96573 5.54052 10.1029 5.54052C10.2492 5.54052 10.368 5.4948 10.4686 5.39423C10.9897 4.9188 11.52 4.4708 12.0686 4.06852C12.1874 3.98623 12.2606 3.87651 12.288 3.73937C12.3154 3.60223 12.288 3.47423 12.1966 3.35537C12.1143 3.23651 11.9954 3.17252 11.8583 3.15423C11.7212 3.13594 11.5932 3.17252 11.4834 3.26394H11.4743Z" fill="#545454"></path></g></g><mask id="mask19_1_5290" style="mask-type:luminance" maskUnits="userSpaceOnUse" x="8" y="2" width="6" height="5"><path d="M13.2023 2.66968H8.81372V6.18054H13.2023V2.66968Z" fill="white"></path></mask><g mask="url(#mask19_1_5290)"><mask id="mask20_1_5290" style="mask-type:luminance" maskUnits="userSpaceOnUse" x="8" y="2" width="6" height="5"><path d="M13.0286 2.7428H8.91428V6.17137H13.0286V2.7428Z" fill="white"></path></mask><g mask="url(#mask20_1_5290)"><path fill-rule="evenodd" clip-rule="evenodd" d="M11.4743 3.26394C10.8983 3.7028 10.3406 4.16909 9.80116 4.65366C9.69145 4.74509 9.62745 4.86394 9.61831 5.00109C9.60916 5.14737 9.65488 5.26623 9.7463 5.37594C9.84688 5.48566 9.96573 5.54052 10.1029 5.54052C10.2492 5.54052 10.368 5.4948 10.4686 5.39423C10.9897 4.9188 11.52 4.4708 12.0686 4.06852C12.1874 3.98623 12.2606 3.87651 12.288 3.73937C12.3154 3.60223 12.288 3.47423 12.1966 3.35537C12.1143 3.23651 11.9954 3.17252 11.8583 3.15423C11.7212 3.13594 11.5932 3.17252 11.4834 3.26394H11.4743Z" fill="#545454"></path></g></g></g><mask id="mask21_1_5290" style="mask-type:luminance" maskUnits="userSpaceOnUse" x="15" y="12" width="7" height="15"><path d="M21.3211 12.3246H15.616V26.8069H21.3211V12.3246Z" fill="white"></path></mask><g mask="url(#mask21_1_5290)"><mask id="mask22_1_5290" style="mask-type:luminance" maskUnits="userSpaceOnUse" x="15" y="12" width="7" height="15"><path d="M21.3211 12.3246H15.616V26.8069H21.3211V12.3246Z" fill="white"></path></mask><g mask="url(#mask22_1_5290)"><mask id="mask23_1_5290" style="mask-type:luminance" maskUnits="userSpaceOnUse" x="15" y="12" width="7" height="15"><path d="M21.2571 12.3429H15.7714V26.7429H21.2571V12.3429Z" fill="white"></path></mask><g mask="url(#mask23_1_5290)"><path fill-rule="evenodd" clip-rule="evenodd" d="M19.6479 19.264C19.1999 18.9989 18.6148 19.0446 18.0479 19.3737C17.8011 19.5109 17.5634 19.5566 17.4354 19.4835C17.3165 19.4103 17.2342 19.1909 17.2342 18.9166C17.2342 18.0937 17.8285 17.0606 18.5325 16.6492C18.7885 16.512 19.0079 16.4663 19.1451 16.5395C19.2731 16.6126 19.3462 16.832 19.3462 17.1155C19.3462 17.2526 19.3919 17.3715 19.4925 17.472C19.5931 17.5726 19.7119 17.6183 19.8491 17.6183C19.9862 17.6183 20.1051 17.5726 20.2057 17.472C20.3062 17.3715 20.3519 17.2526 20.3519 17.1155C20.3519 16.4572 20.0959 15.9269 19.6479 15.6709C19.4011 15.5246 19.0994 15.488 18.7977 15.5246V14.5463C18.7977 14.4092 18.7519 14.2903 18.6514 14.1897C18.5508 14.0892 18.4319 14.0435 18.2948 14.0435C18.1577 14.0435 18.0388 14.0892 17.9382 14.1897C17.8377 14.2903 17.7919 14.4092 17.7919 14.5463V15.9543C17.3257 16.3109 16.9599 16.7406 16.6857 17.2526C16.4114 17.7646 16.2651 18.3132 16.2285 18.8983C16.2285 19.5566 16.4845 20.0777 16.9325 20.3429C17.3897 20.5989 17.9657 20.5623 18.5417 20.224C18.7885 20.0869 19.0171 20.0412 19.1451 20.1143C19.2731 20.1875 19.3462 20.4069 19.3462 20.6903C19.3462 21.4949 18.7519 22.528 18.0479 22.9395C17.8011 23.0857 17.5634 23.1223 17.4445 23.0492C17.3074 22.976 17.2434 22.7657 17.2434 22.4915C17.2434 22.2172 17.0148 21.9886 16.7314 21.9886C16.4479 21.9886 16.2285 22.2172 16.2285 22.4915C16.2285 23.1406 16.4845 23.6617 16.9325 23.9269C17.1337 24.0366 17.3531 24.0915 17.5908 24.0915C17.6548 24.0915 17.7097 24.0732 17.7737 24.064V25.0606C17.7737 25.1977 17.8194 25.3166 17.9199 25.4172C18.0205 25.5177 18.1394 25.5635 18.2765 25.5635C18.4137 25.5635 18.5325 25.5177 18.6331 25.4172C18.7337 25.3166 18.7794 25.1977 18.7794 25.0606V23.6526C19.2457 23.3052 19.6205 22.8663 19.8948 22.3543C20.1691 21.8332 20.3245 21.2846 20.3519 20.6995C20.3519 20.0412 20.0868 19.52 19.6388 19.2549L19.6479 19.264Z" fill="#545454"></path></g></g><mask id="mask24_1_5290" style="mask-type:luminance" maskUnits="userSpaceOnUse" x="15" y="12" width="7" height="15"><path d="M21.3211 12.3246H15.616V26.8069H21.3211V12.3246Z" fill="white"></path></mask><g mask="url(#mask24_1_5290)"><mask id="mask25_1_5290" style="mask-type:luminance" maskUnits="userSpaceOnUse" x="15" y="12" width="7" height="15"><path d="M21.2571 12.3429H15.7714V26.7429H21.2571V12.3429Z" fill="white"></path></mask><g mask="url(#mask25_1_5290)"><path fill-rule="evenodd" clip-rule="evenodd" d="M19.6479 19.264C19.1999 18.9989 18.6148 19.0446 18.0479 19.3737C17.8011 19.5109 17.5634 19.5566 17.4354 19.4835C17.3165 19.4103 17.2342 19.1909 17.2342 18.9166C17.2342 18.0937 17.8285 17.0606 18.5325 16.6492C18.7885 16.512 19.0079 16.4663 19.1451 16.5395C19.2731 16.6126 19.3462 16.832 19.3462 17.1155C19.3462 17.2526 19.3919 17.3715 19.4925 17.472C19.5931 17.5726 19.7119 17.6183 19.8491 17.6183C19.9862 17.6183 20.1051 17.5726 20.2057 17.472C20.3062 17.3715 20.3519 17.2526 20.3519 17.1155C20.3519 16.4572 20.0959 15.9269 19.6479 15.6709C19.4011 15.5246 19.0994 15.488 18.7977 15.5246V14.5463C18.7977 14.4092 18.7519 14.2903 18.6514 14.1897C18.5508 14.0892 18.4319 14.0435 18.2948 14.0435C18.1577 14.0435 18.0388 14.0892 17.9382 14.1897C17.8377 14.2903 17.7919 14.4092 17.7919 14.5463V15.9543C17.3257 16.3109 16.9599 16.7406 16.6857 17.2526C16.4114 17.7646 16.2651 18.3132 16.2285 18.8983C16.2285 19.5566 16.4845 20.0777 16.9325 20.3429C17.3897 20.5989 17.9657 20.5623 18.5417 20.224C18.7885 20.0869 19.0171 20.0412 19.1451 20.1143C19.2731 20.1875 19.3462 20.4069 19.3462 20.6903C19.3462 21.4949 18.7519 22.528 18.0479 22.9395C17.8011 23.0857 17.5634 23.1223 17.4445 23.0492C17.3074 22.976 17.2434 22.7657 17.2434 22.4915C17.2434 22.2172 17.0148 21.9886 16.7314 21.9886C16.4479 21.9886 16.2285 22.2172 16.2285 22.4915C16.2285 23.1406 16.4845 23.6617 16.9325 23.9269C17.1337 24.0366 17.3531 24.0915 17.5908 24.0915C17.6548 24.0915 17.7097 24.0732 17.7737 24.064V25.0606C17.7737 25.1977 17.8194 25.3166 17.9199 25.4172C18.0205 25.5177 18.1394 25.5635 18.2765 25.5635C18.4137 25.5635 18.5325 25.5177 18.6331 25.4172C18.7337 25.3166 18.7794 25.1977 18.7794 25.0606V23.6526C19.2457 23.3052 19.6205 22.8663 19.8948 22.3543C20.1691 21.8332 20.3245 21.2846 20.3519 20.6995C20.3519 20.0412 20.0868 19.52 19.6388 19.2549L19.6479 19.264Z" fill="#545454"></path></g></g></g></g></svg>