<svg xmlns="http://www.w3.org/2000/svg" width="47" height="48" viewBox="0 0 47 48" fill="none"><mask id="mask0_1_5583" style="mask-type:luminance" maskUnits="userSpaceOnUse" x="0" y="0" width="47" height="48"><path d="M46.6479 0H0V48H46.6479V0Z" fill="white"></path></mask><g mask="url(#mask0_1_5583)"><mask id="mask1_1_5583" style="mask-type:luminance" maskUnits="userSpaceOnUse" x="-1" y="-1" width="48" height="50"><path d="M46.7651 -0.180298H-0.180238V48.0631H46.7651V-0.180298Z" fill="white"></path></mask><g mask="url(#mask1_1_5583)"><mask id="mask2_1_5583" style="mask-type:luminance" maskUnits="userSpaceOnUse" x="-1" y="-1" width="48" height="50"><path d="M46.7651 -0.180298H-0.180238V48.0631H46.7651V-0.180298Z" fill="white"></path></mask><g mask="url(#mask2_1_5583)"><mask id="mask3_1_5583" style="mask-type:luminance" maskUnits="userSpaceOnUse" x="-1" y="-1" width="48" height="50"><path d="M46.9815 -0.396606H-0.396507V48.2794H46.9815V-0.396606Z" fill="white"></path></mask><g mask="url(#mask3_1_5583)"><path fill-rule="evenodd" clip-rule="evenodd" d="M17.2802 7.5177H26.5737C28.7822 7.56277 30.4317 8.6715 31.5224 10.8349C32.7844 8.62643 34.5331 7.5177 36.7596 7.5177H46.3506V27.1233H17.2802V7.5177ZM14.576 42.6726H33.5055V47.405H14.576V42.6726Z" fill="#E6F3FA"></path><path fill-rule="evenodd" clip-rule="evenodd" d="M17.2802 21.7148H26.5737C28.5298 22.1385 30.1703 23.2472 31.5044 25.0681C32.1264 24.1847 32.8926 23.4546 33.794 22.8777C34.7044 22.3008 35.6869 21.9132 36.7506 21.7148H46.3416V27.1233H17.2802V21.7148Z" fill="#0086CB"></path><path fill-rule="evenodd" clip-rule="evenodd" d="M32.8024 43.2855H13.9089C13.6385 43.2855 13.4131 43.1413 13.4131 42.943C13.4131 42.7447 13.6295 42.6005 13.9089 42.6005H32.8024C33.0728 42.6005 33.3072 42.7537 33.3072 42.943C33.3072 43.1413 33.0818 43.2855 32.8024 43.2855Z" fill="#545454"></path><path fill-rule="evenodd" clip-rule="evenodd" d="M33.2532 47.405H14.0351C13.8999 47.405 13.7737 47.36 13.6746 47.2608C13.5754 47.1617 13.5213 47.0445 13.5213 46.9093V39.3555H10.745C10.4656 39.3555 10.1861 39.3284 9.90668 39.2743C9.62724 39.2202 9.36583 39.1391 9.10443 39.031C8.84302 38.9228 8.59964 38.7966 8.36527 38.6343C8.1309 38.4721 7.91457 38.3008 7.71626 38.1025C7.51795 37.9042 7.33766 37.6879 7.18442 37.4535C7.03119 37.2191 6.89597 36.9757 6.78781 36.7143C6.67964 36.4529 6.59851 36.1825 6.54442 35.9121C6.49034 35.6417 6.4633 35.3532 6.4633 35.0738V29.2777H0.88358C0.793439 29.2777 0.721326 29.2597 0.640199 29.2146C0.568087 29.1786 0.504988 29.1155 0.459918 29.0433C0.414847 28.9712 0.387805 28.8901 0.378791 28.809C0.369777 28.7279 0.378791 28.6377 0.423861 28.5656L4.42612 19.5966V17.6946C4.42612 16.7932 4.49823 15.9008 4.63344 15.0084C4.76865 14.116 4.97597 13.2507 5.2464 12.3853C5.51682 11.529 5.85034 10.6997 6.25597 9.88842C6.65259 9.08617 7.11231 8.31096 7.62612 7.5718C8.13992 6.83265 8.71682 6.14758 9.33879 5.49856C9.96076 4.84955 10.6278 4.25462 11.3489 3.70476C12.061 3.1549 12.8182 2.66814 13.6025 2.23546C14.3957 1.80279 15.207 1.43321 16.0543 1.12673C16.9016 0.820252 17.767 0.576871 18.6503 0.405604C19.5337 0.234336 20.4261 0.126167 21.3185 0.0901109C22.2109 0.0540545 23.1123 0.0901108 24.0047 0.180252C24.8971 0.279407 25.7805 0.44166 26.6458 0.676026C27.5112 0.910393 28.3585 1.20786 29.1878 1.56842C30.0081 1.92898 30.8013 2.35265 31.5585 2.83941C32.3157 3.32617 33.0368 3.858 33.7129 4.45293C34.3889 5.04786 35.0199 5.68786 35.5968 6.37293C35.7771 6.58025 35.7501 6.90476 35.5427 7.08504C35.4346 7.17518 35.3084 7.21124 35.1732 7.20222C35.0379 7.19321 34.9208 7.13011 34.8306 7.02194C34.0464 6.09349 33.181 5.2642 32.2165 4.52504C31.252 3.78589 30.2244 3.16391 29.1247 2.65011C28.025 2.13631 26.8892 1.7487 25.6994 1.47828C24.5185 1.21687 23.3196 1.08166 22.1027 1.07265H21.9044C21.3636 1.07265 20.8227 1.11772 20.2909 1.1718C19.7591 1.22589 19.2182 1.31603 18.6954 1.4242C18.1726 1.53236 17.6408 1.67659 17.127 1.83884C16.6132 2.0011 16.1084 2.19039 15.6036 2.39772C15.0988 2.60504 14.621 2.83941 14.1433 3.10082C13.6656 3.36222 13.2058 3.64166 12.7641 3.93912C12.3134 4.2456 11.8808 4.57011 11.4661 4.91265C11.0515 5.25518 10.6548 5.62476 10.2672 6.00335C9.88865 6.39096 9.52809 6.78757 9.18555 7.21124C8.84302 7.62588 8.52752 8.06758 8.22105 8.51828C7.92358 8.96898 7.64414 9.4287 7.39175 9.90645C7.13935 10.3842 6.90499 10.871 6.69766 11.3667C6.49034 11.8625 6.31006 12.3763 6.14781 12.8901C5.98555 13.4039 5.85935 13.9267 5.75119 14.4586C5.64302 14.9904 5.56189 15.5222 5.50781 16.0631C5.45372 16.6039 5.42668 17.1357 5.41766 17.6766V19.6867C5.41766 19.7588 5.40865 19.831 5.38161 19.885L1.65879 28.2411H6.95006C7.22048 28.2411 7.45485 28.4755 7.45485 28.7459V35.0287C7.45485 35.4614 7.53597 35.885 7.70724 36.2817C7.87851 36.6873 8.11288 37.0388 8.41935 37.3453C8.72583 37.6518 9.0864 37.8862 9.48302 38.0574C9.88865 38.2197 10.3033 38.3098 10.745 38.3008H14.0351C14.3146 38.3008 14.5399 38.5262 14.5399 38.7966V46.3504H32.7484C32.8475 45.2056 32.0363 37.0479 36.4351 26.5194C36.4892 26.3932 36.5794 26.2941 36.7056 26.24C36.8318 26.1859 36.967 26.1859 37.0932 26.24C37.2194 26.2941 37.3185 26.3842 37.3726 26.5104C37.4267 26.6366 37.4267 26.7718 37.3726 26.898C32.9737 37.3994 33.8661 45.44 33.7579 46.8372C33.7579 47.1256 33.5326 47.3419 33.2532 47.3419V47.405Z" fill="#545454"></path><path fill-rule="evenodd" clip-rule="evenodd" d="M17.848 26.4924H30.8914C30.8373 25.9335 30.684 25.4017 30.4316 24.8969C30.1793 24.3921 29.8457 23.9504 29.4311 23.5718C29.0164 23.1932 28.5477 22.8957 28.0249 22.6884C27.5021 22.4811 26.9612 22.3729 26.3933 22.3729H17.848V26.4924ZM31.4232 27.52H17.3522C17.208 27.52 17.0908 27.4659 16.9916 27.3667C16.8925 27.2676 16.8474 27.1504 16.8474 27.0062V21.8501C16.8474 21.7149 16.9015 21.5797 16.9916 21.4805C17.0908 21.3814 17.208 21.3363 17.3432 21.3363H26.4024C26.7719 21.3363 27.1325 21.3814 27.4931 21.4535C27.8536 21.5256 28.1962 21.6428 28.5387 21.787C28.8812 21.9312 29.1967 22.1115 29.5032 22.3188C29.8097 22.5262 30.0891 22.7605 30.3415 23.0219C30.5939 23.2833 30.8283 23.5718 31.0266 23.8783C31.2249 24.1848 31.3962 24.5093 31.5314 24.8518C31.6666 25.1943 31.7747 25.5459 31.8378 25.9064C31.91 26.267 31.937 26.6276 31.937 26.9971C31.937 27.2856 31.7116 27.511 31.4322 27.511L31.4232 27.52Z" fill="#545454"></path><path fill-rule="evenodd" clip-rule="evenodd" d="M31.4233 27.5109C31.2881 27.5109 31.1709 27.4658 31.0717 27.3667C30.9726 27.2675 30.9275 27.1594 30.9185 27.0242V12.196C30.9185 11.9075 30.8824 11.6281 30.8193 11.3487C30.7562 11.0692 30.6751 10.7988 30.5579 10.5374C30.4407 10.276 30.3055 10.0236 30.1433 9.78923C29.981 9.55486 29.8007 9.33852 29.5934 9.14021C29.3861 8.9419 29.1697 8.76162 28.9264 8.60838C28.692 8.45514 28.4396 8.31993 28.1692 8.22078C27.9078 8.11261 27.6283 8.0405 27.3489 7.98641C27.0695 7.93233 26.79 7.9143 26.5016 7.9143H17.821V22.1295C17.821 22.3999 17.5867 22.6163 17.3162 22.6163C17.181 22.6163 17.0638 22.5712 16.9647 22.472C16.8655 22.3729 16.8205 22.2647 16.8114 22.1295V7.42754C16.8114 7.15711 17.0368 6.93176 17.3162 6.93176H26.5106C26.8621 6.93176 27.2047 6.9588 27.5472 7.0219C27.8897 7.085 28.2233 7.18416 28.5478 7.31035C28.8723 7.43655 29.1788 7.5988 29.4762 7.7881C29.7737 7.9774 30.0441 8.19373 30.2875 8.43711C30.5399 8.6805 30.7652 8.95092 30.9636 9.23937C31.1619 9.52782 31.3331 9.8343 31.4683 10.1498C31.6036 10.4743 31.7117 10.7988 31.7838 11.1413C31.8559 11.4839 31.892 11.8264 31.901 12.178V27.0061C31.901 27.2766 31.6667 27.5019 31.3962 27.5019L31.4233 27.5109Z" fill="#545454"></path><path fill-rule="evenodd" clip-rule="evenodd" d="M32.2706 26.4924H45.323V22.3729H36.7776C36.2188 22.3729 35.6689 22.4811 35.1461 22.6884C34.6233 22.8958 34.1545 23.1842 33.7399 23.5718C33.3253 23.9594 32.9917 24.3921 32.7393 24.8969C32.4869 25.4017 32.3337 25.9335 32.2796 26.4924H32.2706ZM45.8278 27.52H31.7478C31.6036 27.52 31.4864 27.4659 31.3872 27.3667C31.2881 27.2676 31.243 27.1414 31.243 27.0062C31.243 26.6366 31.27 26.276 31.3422 25.9155C31.4143 25.5549 31.5134 25.2034 31.6486 24.8608C31.7838 24.5183 31.9551 24.1938 32.1534 23.8873C32.3517 23.5808 32.5861 23.2924 32.8385 23.031C33.0999 22.7696 33.3793 22.5352 33.6768 22.3279C33.9833 22.1205 34.2988 21.9403 34.6413 21.796C34.9748 21.6518 35.3264 21.5436 35.6869 21.4625C36.0475 21.3904 36.4081 21.3453 36.7776 21.3453H45.8278C46.0982 21.3453 46.3236 21.5797 46.3236 21.8591V26.9972C46.3236 27.2856 46.0982 27.52 45.8278 27.52Z" fill="#545454"></path><path fill-rule="evenodd" clip-rule="evenodd" d="M24.5906 13.8005H20.7506C20.4801 13.8005 20.2728 13.6473 20.2728 13.458C20.2728 13.2597 20.4892 13.1155 20.7506 13.1155H24.5906C24.861 13.1155 25.0683 13.2597 25.0683 13.458C25.0683 13.6563 24.852 13.8005 24.5906 13.8005ZM27.2768 17.92H20.8137C20.5162 17.92 20.2728 17.7667 20.2728 17.5774C20.2728 17.3881 20.5162 17.2349 20.8137 17.2349H27.2768C27.5742 17.2349 27.8176 17.3791 27.8176 17.5774C27.8176 17.7757 27.5742 17.92 27.2768 17.92ZM31.7568 27.52C31.6215 27.52 31.4954 27.4749 31.3962 27.3848C31.297 27.2856 31.243 27.1684 31.243 27.0332V12.196C31.243 11.8445 31.288 11.5019 31.3601 11.1594C31.4323 10.8169 31.5404 10.4834 31.6756 10.1679C31.8108 9.84335 31.9821 9.54589 32.1804 9.25744C32.3787 8.96898 32.6041 8.70758 32.8565 8.45518C33.1089 8.20279 33.3793 7.99546 33.6768 7.80617C33.9742 7.61687 34.2807 7.45462 34.6052 7.32842C34.9297 7.20222 35.2632 7.10307 35.6058 7.03997C35.9483 6.97687 36.2999 6.94983 36.6424 6.94983H45.8277C46.0982 6.94983 46.3235 7.17518 46.3235 7.4456V22.1386C46.3235 22.409 46.0982 22.6253 45.8277 22.6253C45.6925 22.6253 45.5754 22.5803 45.4762 22.4901C45.377 22.391 45.323 22.2828 45.323 22.1386V7.92335H36.6424C36.3539 7.92335 36.0745 7.94138 35.7951 7.99546C35.5156 8.04955 35.2452 8.13067 34.9748 8.22983C34.7134 8.338 34.461 8.4642 34.2176 8.61744C33.9832 8.77067 33.7579 8.95096 33.5506 9.14927C33.3432 9.34758 33.163 9.56391 33.0007 9.79828C32.8385 10.0326 32.7032 10.285 32.5861 10.5464C32.4779 10.8079 32.3877 11.0783 32.3246 11.3577C32.2615 11.6372 32.2345 11.9166 32.2255 12.205V27.0422C32.2255 27.3126 32.0001 27.529 31.7207 27.529L31.7568 27.52Z" fill="#545454"></path><path fill-rule="evenodd" clip-rule="evenodd" d="M41.0503 13.8005H37.2103C36.9398 13.8005 36.7325 13.6473 36.7325 13.458C36.7325 13.2597 36.9488 13.1155 37.2012 13.1155H41.0503C41.3207 13.1155 41.528 13.2597 41.528 13.458C41.528 13.6563 41.3117 13.8005 41.0503 13.8005ZM41.6812 17.92H35.2091C34.9117 17.92 34.6683 17.7667 34.6683 17.5775C34.6683 17.3882 34.9117 17.2349 35.2091 17.2349H41.6812C41.9787 17.2349 42.2221 17.3791 42.2221 17.5775C42.2221 17.7758 41.9787 17.92 41.6812 17.92Z" fill="#545454"></path></g></g><mask id="mask4_1_5583" style="mask-type:luminance" maskUnits="userSpaceOnUse" x="-1" y="-1" width="48" height="50"><path d="M46.7651 -0.180298H-0.180238V48.0631H46.7651V-0.180298Z" fill="white"></path></mask><g mask="url(#mask4_1_5583)"><mask id="mask5_1_5583" style="mask-type:luminance" maskUnits="userSpaceOnUse" x="-1" y="-1" width="48" height="50"><path d="M46.9815 -0.396606H-0.396507V48.2794H46.9815V-0.396606Z" fill="white"></path></mask><g mask="url(#mask5_1_5583)"><path fill-rule="evenodd" clip-rule="evenodd" d="M17.2802 7.5177H26.5737C28.7822 7.56277 30.4317 8.6715 31.5224 10.8349C32.7844 8.62643 34.5331 7.5177 36.7596 7.5177H46.3506V27.1233H17.2802V7.5177ZM14.576 42.6726H33.5055V47.405H14.576V42.6726Z" fill="#E6F3FA"></path><path fill-rule="evenodd" clip-rule="evenodd" d="M17.2802 21.7148H26.5737C28.5298 22.1385 30.1703 23.2472 31.5044 25.0681C32.1264 24.1847 32.8926 23.4546 33.794 22.8777C34.7044 22.3008 35.6869 21.9132 36.7506 21.7148H46.3416V27.1233H17.2802V21.7148Z" fill="#0086CB"></path><path fill-rule="evenodd" clip-rule="evenodd" d="M32.8024 43.2855H13.9089C13.6385 43.2855 13.4131 43.1413 13.4131 42.943C13.4131 42.7447 13.6295 42.6005 13.9089 42.6005H32.8024C33.0728 42.6005 33.3072 42.7537 33.3072 42.943C33.3072 43.1413 33.0818 43.2855 32.8024 43.2855Z" fill="#545454"></path><path fill-rule="evenodd" clip-rule="evenodd" d="M33.2532 47.405H14.0351C13.8999 47.405 13.7737 47.36 13.6746 47.2608C13.5754 47.1617 13.5213 47.0445 13.5213 46.9093V39.3555H10.745C10.4656 39.3555 10.1861 39.3284 9.90668 39.2743C9.62724 39.2202 9.36583 39.1391 9.10443 39.031C8.84302 38.9228 8.59964 38.7966 8.36527 38.6343C8.1309 38.4721 7.91457 38.3008 7.71626 38.1025C7.51795 37.9042 7.33766 37.6879 7.18442 37.4535C7.03119 37.2191 6.89597 36.9757 6.78781 36.7143C6.67964 36.4529 6.59851 36.1825 6.54442 35.9121C6.49034 35.6417 6.4633 35.3532 6.4633 35.0738V29.2777H0.88358C0.793439 29.2777 0.721326 29.2597 0.640199 29.2146C0.568087 29.1786 0.504988 29.1155 0.459918 29.0433C0.414847 28.9712 0.387805 28.8901 0.378791 28.809C0.369777 28.7279 0.378791 28.6377 0.423861 28.5656L4.42612 19.5966V17.6946C4.42612 16.7932 4.49823 15.9008 4.63344 15.0084C4.76865 14.116 4.97597 13.2507 5.2464 12.3853C5.51682 11.529 5.85034 10.6997 6.25597 9.88842C6.65259 9.08617 7.11231 8.31096 7.62612 7.5718C8.13992 6.83265 8.71682 6.14758 9.33879 5.49856C9.96076 4.84955 10.6278 4.25462 11.3489 3.70476C12.061 3.1549 12.8182 2.66814 13.6025 2.23546C14.3957 1.80279 15.207 1.43321 16.0543 1.12673C16.9016 0.820252 17.767 0.576871 18.6503 0.405604C19.5337 0.234336 20.4261 0.126167 21.3185 0.0901109C22.2109 0.0540545 23.1123 0.0901108 24.0047 0.180252C24.8971 0.279407 25.7805 0.44166 26.6458 0.676026C27.5112 0.910393 28.3585 1.20786 29.1878 1.56842C30.0081 1.92898 30.8013 2.35265 31.5585 2.83941C32.3157 3.32617 33.0368 3.858 33.7129 4.45293C34.3889 5.04786 35.0199 5.68786 35.5968 6.37293C35.7771 6.58025 35.7501 6.90476 35.5427 7.08504C35.4346 7.17518 35.3084 7.21124 35.1732 7.20222C35.0379 7.19321 34.9208 7.13011 34.8306 7.02194C34.0464 6.09349 33.181 5.2642 32.2165 4.52504C31.252 3.78589 30.2244 3.16391 29.1247 2.65011C28.025 2.13631 26.8892 1.7487 25.6994 1.47828C24.5185 1.21687 23.3196 1.08166 22.1027 1.07265H21.9044C21.3636 1.07265 20.8227 1.11772 20.2909 1.1718C19.7591 1.22589 19.2182 1.31603 18.6954 1.4242C18.1726 1.53236 17.6408 1.67659 17.127 1.83884C16.6132 2.0011 16.1084 2.19039 15.6036 2.39772C15.0988 2.60504 14.621 2.83941 14.1433 3.10082C13.6656 3.36222 13.2058 3.64166 12.7641 3.93912C12.3134 4.2456 11.8808 4.57011 11.4661 4.91265C11.0515 5.25518 10.6548 5.62476 10.2672 6.00335C9.88865 6.39096 9.52809 6.78757 9.18555 7.21124C8.84302 7.62588 8.52752 8.06758 8.22105 8.51828C7.92358 8.96898 7.64414 9.4287 7.39175 9.90645C7.13935 10.3842 6.90499 10.871 6.69766 11.3667C6.49034 11.8625 6.31006 12.3763 6.14781 12.8901C5.98555 13.4039 5.85935 13.9267 5.75119 14.4586C5.64302 14.9904 5.56189 15.5222 5.50781 16.0631C5.45372 16.6039 5.42668 17.1357 5.41766 17.6766V19.6867C5.41766 19.7588 5.40865 19.831 5.38161 19.885L1.65879 28.2411H6.95006C7.22048 28.2411 7.45485 28.4755 7.45485 28.7459V35.0287C7.45485 35.4614 7.53597 35.885 7.70724 36.2817C7.87851 36.6873 8.11288 37.0388 8.41935 37.3453C8.72583 37.6518 9.0864 37.8862 9.48302 38.0574C9.88865 38.2197 10.3033 38.3098 10.745 38.3008H14.0351C14.3146 38.3008 14.5399 38.5262 14.5399 38.7966V46.3504H32.7484C32.8475 45.2056 32.0363 37.0479 36.4351 26.5194C36.4892 26.3932 36.5794 26.2941 36.7056 26.24C36.8318 26.1859 36.967 26.1859 37.0932 26.24C37.2194 26.2941 37.3185 26.3842 37.3726 26.5104C37.4267 26.6366 37.4267 26.7718 37.3726 26.898C32.9737 37.3994 33.8661 45.44 33.7579 46.8372C33.7579 47.1256 33.5326 47.3419 33.2532 47.3419V47.405Z" fill="#545454"></path><path fill-rule="evenodd" clip-rule="evenodd" d="M17.848 26.4924H30.8914C30.8373 25.9335 30.684 25.4017 30.4316 24.8969C30.1793 24.3921 29.8457 23.9504 29.4311 23.5718C29.0164 23.1932 28.5477 22.8957 28.0249 22.6884C27.5021 22.4811 26.9612 22.3729 26.3933 22.3729H17.848V26.4924ZM31.4232 27.52H17.3522C17.208 27.52 17.0908 27.4659 16.9916 27.3667C16.8925 27.2676 16.8474 27.1504 16.8474 27.0062V21.8501C16.8474 21.7149 16.9015 21.5797 16.9916 21.4805C17.0908 21.3814 17.208 21.3363 17.3432 21.3363H26.4024C26.7719 21.3363 27.1325 21.3814 27.4931 21.4535C27.8536 21.5256 28.1962 21.6428 28.5387 21.787C28.8812 21.9312 29.1967 22.1115 29.5032 22.3188C29.8097 22.5262 30.0891 22.7605 30.3415 23.0219C30.5939 23.2833 30.8283 23.5718 31.0266 23.8783C31.2249 24.1848 31.3962 24.5093 31.5314 24.8518C31.6666 25.1943 31.7747 25.5459 31.8378 25.9064C31.91 26.267 31.937 26.6276 31.937 26.9971C31.937 27.2856 31.7116 27.511 31.4322 27.511L31.4232 27.52Z" fill="#545454"></path><path fill-rule="evenodd" clip-rule="evenodd" d="M31.4233 27.5109C31.2881 27.5109 31.1709 27.4658 31.0717 27.3667C30.9726 27.2675 30.9275 27.1594 30.9185 27.0242V12.196C30.9185 11.9075 30.8824 11.6281 30.8193 11.3487C30.7562 11.0692 30.6751 10.7988 30.5579 10.5374C30.4407 10.276 30.3055 10.0236 30.1433 9.78923C29.981 9.55486 29.8007 9.33852 29.5934 9.14021C29.3861 8.9419 29.1697 8.76162 28.9264 8.60838C28.692 8.45514 28.4396 8.31993 28.1692 8.22078C27.9078 8.11261 27.6283 8.0405 27.3489 7.98641C27.0695 7.93233 26.79 7.9143 26.5016 7.9143H17.821V22.1295C17.821 22.3999 17.5867 22.6163 17.3162 22.6163C17.181 22.6163 17.0638 22.5712 16.9647 22.472C16.8655 22.3729 16.8205 22.2647 16.8114 22.1295V7.42754C16.8114 7.15711 17.0368 6.93176 17.3162 6.93176H26.5106C26.8621 6.93176 27.2047 6.9588 27.5472 7.0219C27.8897 7.085 28.2233 7.18416 28.5478 7.31035C28.8723 7.43655 29.1788 7.5988 29.4762 7.7881C29.7737 7.9774 30.0441 8.19373 30.2875 8.43711C30.5399 8.6805 30.7652 8.95092 30.9636 9.23937C31.1619 9.52782 31.3331 9.8343 31.4683 10.1498C31.6036 10.4743 31.7117 10.7988 31.7838 11.1413C31.8559 11.4839 31.892 11.8264 31.901 12.178V27.0061C31.901 27.2766 31.6667 27.5019 31.3962 27.5019L31.4233 27.5109Z" fill="#545454"></path><path fill-rule="evenodd" clip-rule="evenodd" d="M32.2706 26.4924H45.323V22.3729H36.7776C36.2188 22.3729 35.6689 22.4811 35.1461 22.6884C34.6233 22.8958 34.1545 23.1842 33.7399 23.5718C33.3253 23.9594 32.9917 24.3921 32.7393 24.8969C32.4869 25.4017 32.3337 25.9335 32.2796 26.4924H32.2706ZM45.8278 27.52H31.7478C31.6036 27.52 31.4864 27.4659 31.3872 27.3667C31.2881 27.2676 31.243 27.1414 31.243 27.0062C31.243 26.6366 31.27 26.276 31.3422 25.9155C31.4143 25.5549 31.5134 25.2034 31.6486 24.8608C31.7838 24.5183 31.9551 24.1938 32.1534 23.8873C32.3517 23.5808 32.5861 23.2924 32.8385 23.031C33.0999 22.7696 33.3793 22.5352 33.6768 22.3279C33.9833 22.1205 34.2988 21.9403 34.6413 21.796C34.9748 21.6518 35.3264 21.5436 35.6869 21.4625C36.0475 21.3904 36.4081 21.3453 36.7776 21.3453H45.8278C46.0982 21.3453 46.3236 21.5797 46.3236 21.8591V26.9972C46.3236 27.2856 46.0982 27.52 45.8278 27.52Z" fill="#545454"></path><path fill-rule="evenodd" clip-rule="evenodd" d="M24.5906 13.8005H20.7506C20.4801 13.8005 20.2728 13.6473 20.2728 13.458C20.2728 13.2597 20.4892 13.1155 20.7506 13.1155H24.5906C24.861 13.1155 25.0683 13.2597 25.0683 13.458C25.0683 13.6563 24.852 13.8005 24.5906 13.8005ZM27.2768 17.92H20.8137C20.5162 17.92 20.2728 17.7667 20.2728 17.5774C20.2728 17.3881 20.5162 17.2349 20.8137 17.2349H27.2768C27.5742 17.2349 27.8176 17.3791 27.8176 17.5774C27.8176 17.7757 27.5742 17.92 27.2768 17.92ZM31.7568 27.52C31.6215 27.52 31.4954 27.4749 31.3962 27.3848C31.297 27.2856 31.243 27.1684 31.243 27.0332V12.196C31.243 11.8445 31.288 11.5019 31.3601 11.1594C31.4323 10.8169 31.5404 10.4834 31.6756 10.1679C31.8108 9.84335 31.9821 9.54589 32.1804 9.25744C32.3787 8.96898 32.6041 8.70758 32.8565 8.45518C33.1089 8.20279 33.3793 7.99546 33.6768 7.80617C33.9742 7.61687 34.2807 7.45462 34.6052 7.32842C34.9297 7.20222 35.2632 7.10307 35.6058 7.03997C35.9483 6.97687 36.2999 6.94983 36.6424 6.94983H45.8277C46.0982 6.94983 46.3235 7.17518 46.3235 7.4456V22.1386C46.3235 22.409 46.0982 22.6253 45.8277 22.6253C45.6925 22.6253 45.5754 22.5803 45.4762 22.4901C45.377 22.391 45.323 22.2828 45.323 22.1386V7.92335H36.6424C36.3539 7.92335 36.0745 7.94138 35.7951 7.99546C35.5156 8.04955 35.2452 8.13067 34.9748 8.22983C34.7134 8.338 34.461 8.4642 34.2176 8.61744C33.9832 8.77067 33.7579 8.95096 33.5506 9.14927C33.3432 9.34758 33.163 9.56391 33.0007 9.79828C32.8385 10.0326 32.7032 10.285 32.5861 10.5464C32.4779 10.8079 32.3877 11.0783 32.3246 11.3577C32.2615 11.6372 32.2345 11.9166 32.2255 12.205V27.0422C32.2255 27.3126 32.0001 27.529 31.7207 27.529L31.7568 27.52Z" fill="#545454"></path><path fill-rule="evenodd" clip-rule="evenodd" d="M41.0503 13.8005H37.2103C36.9398 13.8005 36.7325 13.6473 36.7325 13.458C36.7325 13.2597 36.9488 13.1155 37.2012 13.1155H41.0503C41.3207 13.1155 41.528 13.2597 41.528 13.458C41.528 13.6563 41.3117 13.8005 41.0503 13.8005ZM41.6812 17.92H35.2091C34.9117 17.92 34.6683 17.7667 34.6683 17.5775C34.6683 17.3882 34.9117 17.2349 35.2091 17.2349H41.6812C41.9787 17.2349 42.2221 17.3791 42.2221 17.5775C42.2221 17.7758 41.9787 17.92 41.6812 17.92Z" fill="#545454"></path></g></g></g></g></svg>