<svg xmlns="http://www.w3.org/2000/svg" width="48" height="48" viewBox="0 0 48 48" fill="none"><mask id="mask0_1_5634" style="mask-type:luminance" maskUnits="userSpaceOnUse" x="0" y="1" width="48" height="47"><path d="M48 1.74548H0V47.7995H48V1.74548Z" fill="white"></path></mask><g mask="url(#mask0_1_5634)"><path fill-rule="evenodd" clip-rule="evenodd" d="M17.8509 2.11731L47.7146 8.95839V34.126L17.8509 26.5065V2.11731Z" fill="#E6F3FA"></path><path fill-rule="evenodd" clip-rule="evenodd" d="M17.8509 2.11731L47.7146 8.95839V34.126L17.8509 26.5065V2.11731Z" fill="#0086CB"></path><path fill-rule="evenodd" clip-rule="evenodd" d="M1.11571 28.5995L13.8638 31.6784V42.3854L0.985977 39.2114L1.11571 28.5995Z" fill="#E6F3FA"></path><path fill-rule="evenodd" clip-rule="evenodd" d="M17.479 7.33245C17.4876 7.42759 17.5309 7.49678 17.6 7.56596C17.6692 7.63515 17.7471 7.6611 17.8422 7.6611C17.9373 7.6611 18.0152 7.6265 18.0844 7.56596C18.1536 7.50542 18.1968 7.42759 18.2054 7.33245V5.86218C18.2054 5.7584 18.1709 5.67191 18.093 5.60272C18.0238 5.53353 17.9373 5.49029 17.8336 5.49029C17.7298 5.49029 17.6433 5.52488 17.5741 5.60272C17.5049 5.67191 17.4617 5.7584 17.4617 5.86218V7.33245H17.479ZM17.479 10.9995C17.479 11.1033 17.5136 11.1897 17.5914 11.2589C17.6606 11.3281 17.7471 11.3627 17.8509 11.3627C17.9546 11.3627 18.0411 11.3281 18.1103 11.2589C18.1795 11.1897 18.2227 11.1033 18.2227 10.9995V9.52921C18.2227 9.42542 18.1881 9.33894 18.1103 9.26975C18.0411 9.20056 17.9546 9.16596 17.8509 9.16596C17.7471 9.16596 17.6606 9.20056 17.5914 9.26975C17.5222 9.33894 17.479 9.42542 17.479 9.52921V10.9995ZM17.479 14.5541C17.4876 14.6492 17.5309 14.7184 17.6 14.7876C17.6692 14.8481 17.7471 14.8827 17.8422 14.8827C17.9373 14.8827 18.0152 14.8481 18.0844 14.7876C18.1536 14.727 18.1968 14.6492 18.2054 14.5541V13.0925C18.2054 12.9887 18.1709 12.9022 18.093 12.833C18.0238 12.7638 17.9373 12.7206 17.8336 12.7206C17.7298 12.7206 17.6433 12.7552 17.5741 12.833C17.5049 12.9022 17.4617 12.9887 17.4617 13.0925V14.5627L17.479 14.5541ZM17.5136 17.9876C17.5222 18.0827 17.5654 18.1519 17.6346 18.2211C17.7038 18.2816 17.7817 18.3162 17.8768 18.3162C17.9719 18.3162 18.0498 18.2816 18.119 18.2211C18.1882 18.1606 18.2314 18.0827 18.24 17.9876V16.526C18.24 16.4222 18.2054 16.3357 18.1276 16.2665C18.0584 16.1973 17.9719 16.1541 17.8681 16.1541C17.7644 16.1541 17.6779 16.1887 17.6087 16.2665C17.5395 16.3357 17.4963 16.4222 17.4963 16.526V17.9876H17.5136ZM17.5136 22.286C17.5136 22.3897 17.5481 22.4762 17.626 22.5454C17.6952 22.6146 17.7817 22.6579 17.8854 22.6579C17.9892 22.6579 18.0757 22.6233 18.1449 22.5454C18.2141 22.4762 18.2573 22.3897 18.2573 22.286V20.8157C18.2573 20.7119 18.2227 20.6254 18.1449 20.5562C18.0757 20.487 17.9892 20.4438 17.8854 20.4438C17.7817 20.4438 17.6952 20.4784 17.626 20.5562C17.5568 20.6254 17.5136 20.7119 17.5136 20.8157V22.286ZM30.8065 46.1562L47.1871 33.9098V9.80596L30.8065 22.7011V46.1822V46.1649V46.1562ZM43.1741 32.5952C43.079 32.5779 42.9925 32.5952 42.906 32.647C42.8195 32.6989 42.7676 32.7681 42.7417 32.8633C42.7157 32.9584 42.7244 33.0449 42.7763 33.1314C42.8195 33.2179 42.8887 33.2784 42.9838 33.3043L44.4281 33.6676C44.5233 33.6849 44.6098 33.6676 44.6963 33.6157C44.7827 33.5638 44.8346 33.4946 44.8606 33.3995C44.8865 33.3043 44.8779 33.2179 44.826 33.1314C44.7741 33.0449 44.7136 32.9843 44.6184 32.9584H44.6098L43.1654 32.5952H43.1741ZM39.559 31.687C39.4638 31.6698 39.3773 31.687 39.2995 31.7476C39.2217 31.8081 39.1698 31.8687 39.1438 31.9638C39.1179 32.0589 39.1352 32.1454 39.1784 32.2319C39.2217 32.3184 39.2909 32.3703 39.3773 32.4049L40.8217 32.7681C40.9168 32.7854 41.0033 32.7681 41.0898 32.7162C41.1763 32.6643 41.2282 32.5952 41.2541 32.5C41.28 32.4049 41.2714 32.3184 41.2195 32.2319C41.1763 32.1454 41.1071 32.0849 41.0119 32.0589L39.5676 31.6957L39.559 31.687ZM35.9525 30.7789C35.8573 30.7616 35.7709 30.7789 35.6844 30.8308C35.5979 30.8827 35.546 30.9519 35.52 31.047C35.4941 31.1422 35.5027 31.2287 35.5546 31.3152C35.5979 31.4016 35.6671 31.4622 35.7622 31.4881L37.2065 31.8514C37.3017 31.8687 37.3881 31.8514 37.466 31.7908C37.5438 31.7389 37.5957 31.6698 37.6217 31.5746C37.6476 31.4795 37.6303 31.393 37.5871 31.3065C37.5438 31.22 37.4746 31.1681 37.3881 31.1335L35.9438 30.7703L35.9525 30.7789ZM32.3373 29.8708C32.2422 29.8535 32.1557 29.8708 32.0779 29.9314C32 29.9833 31.9481 30.0525 31.9222 30.1476C31.8963 30.2427 31.9136 30.3292 31.9568 30.4157C32 30.5022 32.0692 30.5541 32.1557 30.5887L33.6 30.9519C33.6952 30.9692 33.7817 30.9519 33.8681 30.9C33.9546 30.8481 34.0065 30.7789 34.0325 30.6838C34.0584 30.5887 34.0498 30.5022 33.9979 30.4157C33.9546 30.3292 33.8854 30.2687 33.7903 30.2427L32.346 29.8795L32.3373 29.8708ZM25.1157 28.0546C25.0206 28.0373 24.9341 28.0546 24.8476 28.1065C24.7611 28.1584 24.7092 28.2276 24.6833 28.3227C24.6573 28.4179 24.666 28.5043 24.7179 28.5908C24.7611 28.6773 24.8303 28.7379 24.9254 28.7638H24.9341L26.3784 29.127C26.4736 29.1443 26.56 29.127 26.6465 29.0752C26.733 29.0233 26.7849 28.9541 26.8109 28.8589C26.8368 28.7638 26.8281 28.6773 26.7763 28.5908C26.7244 28.5043 26.6638 28.4438 26.5687 28.4179L25.1244 28.0546H25.1157ZM8.14707 27.4925C8.15572 27.5876 8.19896 27.6568 8.26815 27.726C8.33734 27.7865 8.41518 27.8211 8.51031 27.8211C8.60545 27.8211 8.68328 27.7865 8.75247 27.726C8.82166 27.6654 8.86491 27.5876 8.87355 27.4925V26.0222C8.87355 25.9184 8.83896 25.8319 8.76112 25.7627C8.69193 25.6935 8.60545 25.6503 8.50166 25.6503C8.39788 25.6503 8.31139 25.6849 8.2422 25.7627C8.17301 25.8319 8.12977 25.9184 8.12977 26.0222V27.4925H8.14707ZM21.2757 25.5897L8.86491 22.606V23.8168C8.85626 23.9119 8.81301 23.9811 8.74382 24.0503C8.67464 24.1108 8.5968 24.1454 8.50166 24.1454C8.40653 24.1454 8.32869 24.1108 8.2595 24.0503C8.19031 23.9897 8.14707 23.9119 8.13842 23.8168V22.8741L1.48761 28.0287L8.16436 29.6806C8.16436 29.5162 8.26815 29.3779 8.42382 29.3346C8.65734 29.2654 8.8995 29.4384 8.8995 29.6892V29.8708L14.1752 31.1854L21.2844 25.5897H21.2757ZM17.9979 35.4665C17.9027 35.4492 17.8163 35.4665 17.7298 35.5184C17.6433 35.5703 17.5914 35.6395 17.5654 35.7346C17.5395 35.8298 17.5481 35.9162 17.6 36.0027C17.6519 36.0892 17.7125 36.1498 17.8076 36.1757L19.1481 36.513C19.2433 36.5303 19.3298 36.513 19.4076 36.4525C19.4854 36.4006 19.5373 36.3314 19.5633 36.2362C19.5892 36.1411 19.5719 36.0546 19.5287 35.9681C19.4854 35.8816 19.4163 35.8298 19.3298 35.7952L17.9892 35.4579L17.9979 35.4665ZM11.3384 33.7887C11.2433 33.7714 11.1568 33.7887 11.0703 33.8406C10.9838 33.8925 10.9319 33.9616 10.906 34.0568C10.88 34.1519 10.8887 34.2384 10.9406 34.3249C10.9925 34.4114 11.053 34.4719 11.1481 34.4979L12.4887 34.8352C12.5838 34.8525 12.6703 34.8352 12.7481 34.7746C12.826 34.7227 12.8779 34.6535 12.9038 34.5584C12.9298 34.4633 12.9125 34.3768 12.8692 34.2903C12.826 34.2038 12.7568 34.1519 12.6703 34.1173L11.3384 33.78V33.7887ZM7.67139 33.6157C7.57626 33.6676 7.50707 33.7541 7.48977 33.8665C7.46382 33.9789 7.48977 34.0741 7.55896 34.1692C7.62815 34.2557 7.71464 34.3076 7.82707 34.3162C7.9395 34.3162 8.03464 34.2903 8.11247 34.2038L8.58815 33.8579L9.16761 33.9962C9.26274 34.0135 9.34923 33.9962 9.42707 33.9357C9.50491 33.8838 9.5568 33.8146 9.58274 33.7195C9.60869 33.6243 9.59139 33.5379 9.54815 33.4514C9.50491 33.3649 9.43572 33.313 9.34923 33.2784L8.83031 33.1487C8.74382 33.0276 8.62274 32.9757 8.47572 33.0016C8.32869 33.0276 8.23355 33.1054 8.18166 33.2438C8.01734 33.3649 7.84437 33.486 7.68004 33.6157H7.67139ZM5.13734 35.5098C5.0422 35.5616 4.97301 35.6481 4.95572 35.7606C4.92977 35.873 4.95572 35.9681 5.02491 36.0633C5.0941 36.1498 5.18058 36.2016 5.29301 36.2103C5.40545 36.2103 5.50058 36.1843 5.57842 36.0979L6.59031 35.3368C6.6941 35.2849 6.75464 35.207 6.78923 35.0946C6.81518 34.9822 6.78923 34.8784 6.72869 34.7919C6.66815 34.7054 6.56437 34.6535 6.45193 34.6449C6.3395 34.6449 6.23572 34.6795 6.15788 34.7573L5.14599 35.5184L5.13734 35.5098ZM2.61193 37.3952C2.5168 37.4471 2.44761 37.5335 2.43031 37.646C2.40437 37.7584 2.43031 37.8535 2.4995 37.9487C2.56869 38.0438 2.65518 38.087 2.76761 38.0957C2.88004 38.0957 2.97518 38.0698 3.05301 37.9833L4.06491 37.2308C4.16004 37.1789 4.22923 37.0925 4.24653 36.98C4.27247 36.8676 4.24653 36.7725 4.17734 36.6773C4.10815 36.5908 4.02166 36.5389 3.90923 36.5303C3.7968 36.5303 3.70166 36.5562 3.62382 36.6427L2.61193 37.3952ZM14.6163 42.0135L21.2152 37.0146L21.1546 36.9973C21.0595 36.9627 20.9903 36.9108 20.9471 36.8243C20.9038 36.7379 20.8865 36.6514 20.9125 36.5562C20.9384 36.4611 20.9903 36.3919 21.0768 36.34C21.1633 36.2881 21.2498 36.2708 21.3449 36.2881L21.6736 36.3746V26.2211L14.6249 31.7649V34.6189H14.6854L16.026 34.9562C16.1125 34.9908 16.1817 35.0427 16.2249 35.1292C16.2681 35.2157 16.2768 35.3022 16.2595 35.3973C16.2336 35.4925 16.1817 35.5616 16.1038 35.6135C16.026 35.6654 15.9395 35.6827 15.8444 35.6741L14.6249 35.3627V42.0222L14.6163 42.0135ZM1.12437 39.1941L1.15896 39.2114L13.8725 42.3681V31.8514L8.89085 30.6146V31.1422C8.8822 31.2373 8.83896 31.3065 8.76977 31.3757C8.70058 31.4362 8.62274 31.4708 8.52761 31.4708C8.43247 31.4708 8.35464 31.4362 8.28545 31.3757C8.21626 31.3152 8.17301 31.2373 8.16436 31.1422V30.4243L1.12437 28.6687V39.1854V39.1941ZM0.761122 39.86C0.553555 39.7995 0.449771 39.687 0.432474 39.566C0.406528 39.5141 0.38923 39.4535 0.38923 39.393V39.3757C0.38923 39.3757 0.371933 39.2979 0.371933 39.2546V28.167C0.371933 28.1065 0.371933 28.0633 0.38923 28.02V15.0038C0.38923 14.926 0.38923 14.8481 0.423825 14.7789C0.458419 14.6838 0.51896 14.6146 0.596798 14.5541L17.5568 1.92704C17.6865 1.83191 17.8249 1.80596 17.9806 1.84056L47.5157 8.46542C47.6973 8.50867 47.8184 8.61245 47.8876 8.78542C47.9049 8.82867 47.9222 8.88056 47.9222 8.9411V34.1519C47.8963 34.2903 47.8271 34.3941 47.7146 34.4806L30.7546 47.1249C30.6249 47.22 30.4779 47.246 30.3222 47.2114L0.778419 39.886H0.761122V39.86ZM22.3481 25.2352C22.3827 25.287 22.3914 25.3476 22.3914 25.4081V36.8416C22.3914 36.8416 22.3914 36.9108 22.3741 36.9368V36.9887C22.3309 37.0665 22.279 37.1357 22.2098 37.1789L14.9881 42.6362L30.08 46.3811V30.0352H29.9936L28.5492 29.6633C28.4541 29.6287 28.3849 29.5768 28.3417 29.4903C28.2984 29.4038 28.2811 29.3173 28.3071 29.2222C28.333 29.127 28.3849 29.0579 28.4714 29.006C28.5579 28.9541 28.6444 28.9368 28.7395 28.9541L30.0887 29.3V22.7443L1.12437 15.566V27.3714L8.2595 21.8535C8.31139 21.8189 8.37193 21.7843 8.43247 21.7843C8.50166 21.767 8.55355 21.767 8.6141 21.7843L22.0541 25.0103C22.1406 25.0276 22.2098 25.0795 22.2703 25.14C22.3049 25.166 22.3395 25.2092 22.3481 25.2525V25.2352ZM46.9276 9.06218L18.2054 2.63623V3.65677C18.1968 3.75191 18.1536 3.8211 18.0844 3.89029C18.0152 3.95083 17.9373 3.98542 17.8422 3.98542C17.7471 3.98542 17.6692 3.95083 17.6 3.89029C17.5309 3.82975 17.4876 3.75191 17.479 3.65677V2.89569L1.39247 14.8827L30.4 22.087L46.9276 9.08813V9.06218Z" fill="#545454"></path></g></svg>