<svg xmlns="http://www.w3.org/2000/svg" width="53" height="48" viewBox="0 0 53 48" fill="none"><mask id="mask0_1_5433" style="mask-type:luminance" maskUnits="userSpaceOnUse" x="0" y="0" width="53" height="48"><path d="M52.3911 0.391113H0.391113V47.7244H52.3911V0.391113Z" fill="white"></path></mask><g mask="url(#mask0_1_5433)"><mask id="mask1_1_5433" style="mask-type:luminance" maskUnits="userSpaceOnUse" x="12" y="41" width="24" height="7"><path d="M35.6267 41.6001H12.5867V47.7868H35.6267V41.6001Z" fill="white"></path></mask><g mask="url(#mask1_1_5433)"><mask id="mask2_1_5433" style="mask-type:luminance" maskUnits="userSpaceOnUse" x="12" y="41" width="24" height="7"><path d="M35.6267 41.6001H12.5867V47.7868H35.6267V41.6001Z" fill="white"></path></mask><g mask="url(#mask2_1_5433)"><mask id="mask3_1_5433" style="mask-type:luminance" maskUnits="userSpaceOnUse" x="12" y="41" width="24" height="7"><path d="M35.4311 41.8046H12.7645V47.8046H35.4311V41.8046Z" fill="white"></path></mask><g mask="url(#mask3_1_5433)"><path d="M33.4311 42.4712H14.7645V47.1379H33.4311V42.4712Z" fill="#E6F3FA"></path></g></g><mask id="mask4_1_5433" style="mask-type:luminance" maskUnits="userSpaceOnUse" x="12" y="41" width="24" height="7"><path d="M35.6267 41.6001H12.5867V47.7868H35.6267V41.6001Z" fill="white"></path></mask><g mask="url(#mask4_1_5433)"><mask id="mask5_1_5433" style="mask-type:luminance" maskUnits="userSpaceOnUse" x="12" y="41" width="24" height="7"><path d="M35.4311 41.8046H12.7645V47.8046H35.4311V41.8046Z" fill="white"></path></mask><g mask="url(#mask5_1_5433)"><path d="M33.4311 42.4712H14.7645V47.1379H33.4311V42.4712Z" fill="#E6F3FA"></path></g></g></g><mask id="mask6_1_5433" style="mask-type:luminance" maskUnits="userSpaceOnUse" x="11" y="41" width="25" height="3"><path d="M35.6267 41.6001H11.3067V43.9468H35.6267V41.6001Z" fill="white"></path></mask><g mask="url(#mask6_1_5433)"><mask id="mask7_1_5433" style="mask-type:luminance" maskUnits="userSpaceOnUse" x="11" y="41" width="25" height="3"><path d="M35.6267 41.6001H11.3067V43.9468H35.6267V41.6001Z" fill="white"></path></mask><g mask="url(#mask7_1_5433)"><mask id="mask8_1_5433" style="mask-type:luminance" maskUnits="userSpaceOnUse" x="11" y="41" width="25" height="3"><path d="M35.4311 41.8046H11.4311V43.8046H35.4311V41.8046Z" fill="white"></path></mask><g mask="url(#mask8_1_5433)"><path fill-rule="evenodd" clip-rule="evenodd" d="M32.7378 43.0757H14.1067C13.84 43.0757 13.6178 42.9335 13.6178 42.7379C13.6178 42.5424 13.8311 42.4001 14.1067 42.4001H32.7378C33.0045 42.4001 33.2356 42.5513 33.2356 42.7379C33.2356 42.9335 33.0133 43.0757 32.7378 43.0757Z" fill="#545454"></path></g></g><mask id="mask9_1_5433" style="mask-type:luminance" maskUnits="userSpaceOnUse" x="11" y="41" width="25" height="3"><path d="M35.6267 41.6001H11.3067V43.9468H35.6267V41.6001Z" fill="white"></path></mask><g mask="url(#mask9_1_5433)"><mask id="mask10_1_5433" style="mask-type:luminance" maskUnits="userSpaceOnUse" x="11" y="41" width="25" height="3"><path d="M35.4311 41.8046H11.4311V43.8046H35.4311V41.8046Z" fill="white"></path></mask><g mask="url(#mask10_1_5433)"><path fill-rule="evenodd" clip-rule="evenodd" d="M32.7378 43.0757H14.1067C13.84 43.0757 13.6178 42.9335 13.6178 42.7379C13.6178 42.5424 13.8311 42.4001 14.1067 42.4001H32.7378C33.0045 42.4001 33.2356 42.5513 33.2356 42.7379C33.2356 42.9335 33.0133 43.0757 32.7378 43.0757Z" fill="#545454"></path></g></g></g><mask id="mask11_1_5433" style="mask-type:luminance" maskUnits="userSpaceOnUse" x="0" y="0" width="42" height="48"><path d="M41.6 0.213379H0.213333V47.7867H41.6V0.213379Z" fill="white"></path></mask><g mask="url(#mask11_1_5433)"><mask id="mask12_1_5433" style="mask-type:luminance" maskUnits="userSpaceOnUse" x="0" y="0" width="42" height="48"><path d="M41.6 0.213379H0.213333V47.7867H41.6V0.213379Z" fill="white"></path></mask><g mask="url(#mask12_1_5433)"><mask id="mask13_1_5433" style="mask-type:luminance" maskUnits="userSpaceOnUse" x="0" y="0" width="42" height="48"><path d="M41.4311 0H0V48H41.4311V0Z" fill="white"></path></mask><g mask="url(#mask13_1_5433)"><path fill-rule="evenodd" clip-rule="evenodd" d="M14.2311 47.1378C14.0978 47.1378 13.9733 47.0934 13.8756 46.9956C13.7778 46.8978 13.7245 46.7823 13.7245 46.6489V39.2001H10.9867C10.7111 39.2001 10.4356 39.1734 10.16 39.1201C9.88445 39.0667 9.62667 38.9867 9.3689 38.8801C9.11112 38.7734 8.87112 38.6489 8.64001 38.4889C8.4089 38.3289 8.19556 38.1601 8.00001 37.9645C7.80445 37.7689 7.62667 37.5556 7.47556 37.3245C7.32445 37.0934 7.19112 36.8534 7.08445 36.5956C6.97778 36.3378 6.89778 36.0712 6.84445 35.8045C6.79112 35.5378 6.76445 35.2534 6.76445 34.9778V29.2623H1.26223C1.17334 29.2623 1.10223 29.2445 1.02223 29.2001C0.951117 29.1645 0.888894 29.1023 0.84445 29.0312C0.800006 28.9601 0.773339 28.8801 0.76445 28.8001C0.755561 28.7201 0.76445 28.6312 0.808895 28.5601L4.75556 19.7156V17.8401C4.75556 16.9512 4.82667 16.0712 4.96001 15.1912C5.09334 14.3112 5.29778 13.4578 5.56445 12.6045C5.83112 11.7601 6.16001 10.9423 6.56001 10.1423C6.95112 9.35117 7.40445 8.58672 7.91112 7.85783C8.41778 7.12895 8.98667 6.45339 9.60001 5.81339C10.2133 5.17339 10.8711 4.58672 11.5822 4.0445C12.2845 3.50228 13.0311 3.02228 13.8045 2.59561C14.5867 2.16894 15.3867 1.8045 16.2222 1.50228C17.0578 1.20006 17.9111 0.960056 18.7822 0.791167C19.6533 0.622278 20.5333 0.515611 21.4133 0.480056C22.2933 0.4445 23.1822 0.480056 24.0622 0.568945C24.9422 0.666722 25.8133 0.826722 26.6667 1.05783C27.52 1.28894 28.3556 1.58228 29.1733 1.93783C29.9822 2.29339 30.7645 2.71117 31.5111 3.19117C32.2578 3.67117 32.9689 4.19561 33.6356 4.78228C34.3022 5.36894 34.9245 6.00006 35.4933 6.67561C35.6711 6.88006 35.6445 7.20006 35.44 7.37783C35.3333 7.46672 35.2089 7.50228 35.0756 7.49339C34.9422 7.4845 34.8267 7.42228 34.7378 7.31561C33.9645 6.40006 33.1111 5.58228 32.16 4.85339C31.2089 4.1245 30.1956 3.51117 29.1111 3.0045C28.0267 2.49783 26.9067 2.11561 25.7333 1.84894C24.5689 1.59117 23.3867 1.45783 22.1867 1.44894H21.9911C21.4578 1.44894 20.9245 1.49339 20.4 1.54672C19.8756 1.60006 19.3422 1.68894 18.8267 1.79561C18.3111 1.90228 17.7867 2.0445 17.28 2.2045C16.7733 2.3645 16.2756 2.55117 15.7778 2.75561C15.28 2.96006 14.8089 3.19117 14.3378 3.44894C13.8667 3.70672 13.4133 3.98228 12.9778 4.27561C12.5333 4.57783 12.1067 4.89783 11.6978 5.23561C11.2889 5.57339 10.8978 5.93783 10.5156 6.31117C10.1422 6.69339 9.78667 7.0845 9.4489 7.50228C9.11112 7.91117 8.80001 8.34672 8.49778 8.79117C8.20445 9.23561 7.9289 9.68895 7.68001 10.1601C7.43112 10.6312 7.20001 11.1112 6.99556 11.6001C6.79112 12.0889 6.61334 12.5956 6.45334 13.1023C6.29334 13.6089 6.16889 14.1245 6.06223 14.6489C5.95556 15.1734 5.87556 15.6978 5.82223 16.2312C5.76889 16.7645 5.74223 17.2889 5.73334 17.8223V19.8045C5.73334 19.8756 5.72445 19.9467 5.69778 20.0001L2.02667 28.2401H7.24445C7.51112 28.2401 7.74223 28.4712 7.74223 28.7378V34.9334C7.74223 35.3601 7.82223 35.7778 7.99112 36.1689C8.16001 36.5689 8.39112 36.9156 8.69334 37.2178C8.99556 37.5201 9.35112 37.7512 9.74223 37.9201C10.1422 38.0801 10.5511 38.1689 10.9867 38.1601H14.2311C14.5067 38.1601 14.7289 38.3823 14.7289 38.6489V46.0978H32.6845C32.7822 44.9689 31.9822 36.9245 36.32 26.5423C36.3733 26.4178 36.4622 26.3201 36.5867 26.2667C36.7111 26.2134 36.8445 26.2134 36.9689 26.2667C37.0933 26.3201 37.1911 26.4089 37.2445 26.5334C37.2978 26.6578 37.2978 26.7912 37.2445 26.9156C32.9067 37.2712 33.7867 45.2001 33.68 46.5778C33.68 46.8623 33.4578 47.0756 33.1822 47.0756H14.2311V47.1378Z" fill="#545454"></path></g></g><mask id="mask14_1_5433" style="mask-type:luminance" maskUnits="userSpaceOnUse" x="0" y="0" width="42" height="48"><path d="M41.6 0.213379H0.213333V47.7867H41.6V0.213379Z" fill="white"></path></mask><g mask="url(#mask14_1_5433)"><mask id="mask15_1_5433" style="mask-type:luminance" maskUnits="userSpaceOnUse" x="0" y="0" width="42" height="48"><path d="M41.4311 0H0V48H41.4311V0Z" fill="white"></path></mask><g mask="url(#mask15_1_5433)"><path fill-rule="evenodd" clip-rule="evenodd" d="M14.2311 47.1378C14.0978 47.1378 13.9733 47.0934 13.8756 46.9956C13.7778 46.8978 13.7245 46.7823 13.7245 46.6489V39.2001H10.9867C10.7111 39.2001 10.4356 39.1734 10.16 39.1201C9.88445 39.0667 9.62667 38.9867 9.3689 38.8801C9.11112 38.7734 8.87112 38.6489 8.64001 38.4889C8.4089 38.3289 8.19556 38.1601 8.00001 37.9645C7.80445 37.7689 7.62667 37.5556 7.47556 37.3245C7.32445 37.0934 7.19112 36.8534 7.08445 36.5956C6.97778 36.3378 6.89778 36.0712 6.84445 35.8045C6.79112 35.5378 6.76445 35.2534 6.76445 34.9778V29.2623H1.26223C1.17334 29.2623 1.10223 29.2445 1.02223 29.2001C0.951117 29.1645 0.888894 29.1023 0.84445 29.0312C0.800006 28.9601 0.773339 28.8801 0.76445 28.8001C0.755561 28.7201 0.76445 28.6312 0.808895 28.5601L4.75556 19.7156V17.8401C4.75556 16.9512 4.82667 16.0712 4.96001 15.1912C5.09334 14.3112 5.29778 13.4578 5.56445 12.6045C5.83112 11.7601 6.16001 10.9423 6.56001 10.1423C6.95112 9.35117 7.40445 8.58672 7.91112 7.85783C8.41778 7.12895 8.98667 6.45339 9.60001 5.81339C10.2133 5.17339 10.8711 4.58672 11.5822 4.0445C12.2845 3.50228 13.0311 3.02228 13.8045 2.59561C14.5867 2.16894 15.3867 1.8045 16.2222 1.50228C17.0578 1.20006 17.9111 0.960056 18.7822 0.791167C19.6533 0.622278 20.5333 0.515611 21.4133 0.480056C22.2933 0.4445 23.1822 0.480056 24.0622 0.568945C24.9422 0.666722 25.8133 0.826722 26.6667 1.05783C27.52 1.28894 28.3556 1.58228 29.1733 1.93783C29.9822 2.29339 30.7645 2.71117 31.5111 3.19117C32.2578 3.67117 32.9689 4.19561 33.6356 4.78228C34.3022 5.36894 34.9245 6.00006 35.4933 6.67561C35.6711 6.88006 35.6445 7.20006 35.44 7.37783C35.3333 7.46672 35.2089 7.50228 35.0756 7.49339C34.9422 7.4845 34.8267 7.42228 34.7378 7.31561C33.9645 6.40006 33.1111 5.58228 32.16 4.85339C31.2089 4.1245 30.1956 3.51117 29.1111 3.0045C28.0267 2.49783 26.9067 2.11561 25.7333 1.84894C24.5689 1.59117 23.3867 1.45783 22.1867 1.44894H21.9911C21.4578 1.44894 20.9245 1.49339 20.4 1.54672C19.8756 1.60006 19.3422 1.68894 18.8267 1.79561C18.3111 1.90228 17.7867 2.0445 17.28 2.2045C16.7733 2.3645 16.2756 2.55117 15.7778 2.75561C15.28 2.96006 14.8089 3.19117 14.3378 3.44894C13.8667 3.70672 13.4133 3.98228 12.9778 4.27561C12.5333 4.57783 12.1067 4.89783 11.6978 5.23561C11.2889 5.57339 10.8978 5.93783 10.5156 6.31117C10.1422 6.69339 9.78667 7.0845 9.4489 7.50228C9.11112 7.91117 8.80001 8.34672 8.49778 8.79117C8.20445 9.23561 7.9289 9.68895 7.68001 10.1601C7.43112 10.6312 7.20001 11.1112 6.99556 11.6001C6.79112 12.0889 6.61334 12.5956 6.45334 13.1023C6.29334 13.6089 6.16889 14.1245 6.06223 14.6489C5.95556 15.1734 5.87556 15.6978 5.82223 16.2312C5.76889 16.7645 5.74223 17.2889 5.73334 17.8223V19.8045C5.73334 19.8756 5.72445 19.9467 5.69778 20.0001L2.02667 28.2401H7.24445C7.51112 28.2401 7.74223 28.4712 7.74223 28.7378V34.9334C7.74223 35.3601 7.82223 35.7778 7.99112 36.1689C8.16001 36.5689 8.39112 36.9156 8.69334 37.2178C8.99556 37.5201 9.35112 37.7512 9.74223 37.9201C10.1422 38.0801 10.5511 38.1689 10.9867 38.1601H14.2311C14.5067 38.1601 14.7289 38.3823 14.7289 38.6489V46.0978H32.6845C32.7822 44.9689 31.9822 36.9245 36.32 26.5423C36.3733 26.4178 36.4622 26.3201 36.5867 26.2667C36.7111 26.2134 36.8445 26.2134 36.9689 26.2667C37.0933 26.3201 37.1911 26.4089 37.2445 26.5334C37.2978 26.6578 37.2978 26.7912 37.2445 26.9156C32.9067 37.2712 33.7867 45.2001 33.68 46.5778C33.68 46.8623 33.4578 47.0756 33.1822 47.0756H14.2311V47.1378Z" fill="#545454"></path></g></g></g><mask id="mask16_1_5433" style="mask-type:luminance" maskUnits="userSpaceOnUse" x="23" y="2" width="23" height="32"><path d="M45.44 2.98669H23.8933V33.28H45.44V2.98669Z" fill="white"></path></mask><g mask="url(#mask16_1_5433)"><mask id="mask17_1_5433" style="mask-type:luminance" maskUnits="userSpaceOnUse" x="23" y="2" width="23" height="32"><path d="M45.44 2.98669H23.8933V33.28H45.44V2.98669Z" fill="white"></path></mask><g mask="url(#mask17_1_5433)"><mask id="mask18_1_5433" style="mask-type:luminance" maskUnits="userSpaceOnUse" x="24" y="3" width="22" height="31"><path d="M45.4311 3.13782H24.0978V33.1378H45.4311V3.13782Z" fill="white"></path></mask><g mask="url(#mask18_1_5433)"><path fill-rule="evenodd" clip-rule="evenodd" d="M39.0933 29.7601C39.0933 30.1601 38.7556 30.4712 38.3378 30.4712H31.1911C30.7733 30.4712 30.4356 30.1512 30.4356 29.7601V26.4712H39.1022V29.7601H39.0933Z" fill="#0086CB"></path><path d="M39.0933 29.7601C39.0933 30.1601 38.7556 30.4712 38.3378 30.4712H31.1911C30.7733 30.4712 30.4356 30.1512 30.4356 29.7601V26.4712H39.1022V29.7601H39.0933Z" stroke="#545454" stroke-width="0.75"></path><path fill-rule="evenodd" clip-rule="evenodd" d="M42.0978 14.2578C42.0978 15.9645 41.4667 17.6089 40.3289 18.9067C38 21.5378 38.4267 24.64 38.4267 25.1378H31.1022C31.1022 24.5245 31.6089 21.7867 29.0578 18.7289C28.4267 17.9823 27.9733 17.1378 27.7067 16.1956C27.44 15.2534 27.36 14.3023 27.4933 13.3334C27.5556 12.9067 27.6622 12.48 27.8045 12.0712C27.9467 11.6623 28.1245 11.2623 28.3289 10.88C28.5422 10.4978 28.7822 10.1423 29.0578 9.80448C29.3333 9.46671 29.6356 9.1556 29.9645 8.88004C30.2933 8.60448 30.6489 8.34671 31.0222 8.12448C31.3956 7.90226 31.7956 7.72448 32.2045 7.57337C32.6133 7.42226 33.0311 7.3156 33.4578 7.24448C33.8845 7.17337 34.32 7.13782 34.7556 7.13782C38.8 7.13782 42.0889 10.3378 42.0889 14.2578H42.0978Z" fill="#E6F3FA"></path><path d="M34.7645 7.13784C38.8 7.13784 42.0978 10.3378 42.0978 14.2578C42.0978 15.8845 41.52 17.4578 40.48 18.729L40.3289 18.9067C38 21.5378 38.4267 24.6401 38.4267 25.1378H35.0578V17.6267C35.0578 17.4401 35.12 17.2801 35.2533 17.1467L38.5778 13.929C38.6845 13.8223 38.7022 13.7067 38.6133 13.5734L38.5778 13.5201C38.5156 13.4667 38.4533 13.4312 38.3645 13.4312C38.2756 13.4312 38.2133 13.4578 38.1511 13.5201L35.2178 16.3645C35.0933 16.489 34.9333 16.5512 34.7556 16.5512C34.5778 16.5512 34.4267 16.489 34.2933 16.3645L31.36 13.5201C31.2978 13.4667 31.2356 13.4312 31.1467 13.4312C31.0578 13.4312 30.9956 13.4578 30.9333 13.5201C30.8178 13.6267 30.8089 13.7512 30.8978 13.8845L30.9333 13.929L34.2578 17.1467C34.3822 17.2712 34.4533 17.449 34.4533 17.6267V25.1378H31.0845V24.9601C31.1467 24.1245 31.3867 21.6712 29.1822 18.9067L29.04 18.7378C28.4089 17.9912 27.9556 17.1467 27.6889 16.2045C27.4133 15.2623 27.3422 14.3112 27.4756 13.3423C27.5378 12.9156 27.6445 12.489 27.7867 12.0801C27.9289 11.6712 28.1067 11.2712 28.3111 10.889C28.5156 10.5067 28.7645 10.1512 29.04 9.8134C29.3156 9.47562 29.6178 9.16451 29.9556 8.88896C30.2845 8.60451 30.64 8.35562 31.0222 8.1334C31.3956 7.91118 31.7956 7.7334 32.2045 7.58229C32.6133 7.43118 33.0311 7.32451 33.4667 7.2534C33.8933 7.18229 34.3289 7.14673 34.7645 7.15562V7.13784ZM30.1067 25.1378V26.1334H39.4311V24.7467C39.3422 23.849 39.4311 22.9778 39.6889 22.1156C39.9467 21.2534 40.3467 20.4712 40.9067 19.769L41.0756 19.5645C41.7245 18.8356 42.2311 18.009 42.5778 17.0934C42.9245 16.1778 43.1022 15.2267 43.1022 14.249C43.1022 9.76007 39.3511 6.12451 34.7645 6.12451C30.56 6.12451 27.0222 9.20896 26.4978 13.1823C26.2222 15.3423 26.8 17.4667 28.1333 19.1645L28.2845 19.3512C29.7867 21.1556 30.2045 22.729 30.1333 24.489L30.1067 24.8978V25.1201V25.1378Z" fill="#545454"></path></g></g><mask id="mask19_1_5433" style="mask-type:luminance" maskUnits="userSpaceOnUse" x="23" y="2" width="23" height="32"><path d="M45.44 2.98669H23.8933V33.28H45.44V2.98669Z" fill="white"></path></mask><g mask="url(#mask19_1_5433)"><mask id="mask20_1_5433" style="mask-type:luminance" maskUnits="userSpaceOnUse" x="24" y="3" width="22" height="31"><path d="M45.4311 3.13782H24.0978V33.1378H45.4311V3.13782Z" fill="white"></path></mask><g mask="url(#mask20_1_5433)"><path fill-rule="evenodd" clip-rule="evenodd" d="M39.0933 29.7601C39.0933 30.1601 38.7556 30.4712 38.3378 30.4712H31.1911C30.7733 30.4712 30.4356 30.1512 30.4356 29.7601V26.4712H39.1022V29.7601H39.0933Z" fill="#0086CB"></path><path d="M39.0933 29.7601C39.0933 30.1601 38.7556 30.4712 38.3378 30.4712H31.1911C30.7733 30.4712 30.4356 30.1512 30.4356 29.7601V26.4712H39.1022V29.7601H39.0933Z" stroke="#545454" stroke-width="0.75"></path><path fill-rule="evenodd" clip-rule="evenodd" d="M42.0978 14.2578C42.0978 15.9645 41.4667 17.6089 40.3289 18.9067C38 21.5378 38.4267 24.64 38.4267 25.1378H31.1022C31.1022 24.5245 31.6089 21.7867 29.0578 18.7289C28.4267 17.9823 27.9733 17.1378 27.7067 16.1956C27.44 15.2534 27.36 14.3023 27.4933 13.3334C27.5556 12.9067 27.6622 12.48 27.8045 12.0712C27.9467 11.6623 28.1245 11.2623 28.3289 10.88C28.5422 10.4978 28.7822 10.1423 29.0578 9.80448C29.3333 9.46671 29.6356 9.1556 29.9645 8.88004C30.2933 8.60448 30.6489 8.34671 31.0222 8.12448C31.3956 7.90226 31.7956 7.72448 32.2045 7.57337C32.6133 7.42226 33.0311 7.3156 33.4578 7.24448C33.8845 7.17337 34.32 7.13782 34.7556 7.13782C38.8 7.13782 42.0889 10.3378 42.0889 14.2578H42.0978Z" fill="#E6F3FA"></path><path d="M34.7645 7.13784C38.8 7.13784 42.0978 10.3378 42.0978 14.2578C42.0978 15.8845 41.52 17.4578 40.48 18.729L40.3289 18.9067C38 21.5378 38.4267 24.6401 38.4267 25.1378H35.0578V17.6267C35.0578 17.4401 35.12 17.2801 35.2533 17.1467L38.5778 13.929C38.6845 13.8223 38.7022 13.7067 38.6133 13.5734L38.5778 13.5201C38.5156 13.4667 38.4533 13.4312 38.3645 13.4312C38.2756 13.4312 38.2133 13.4578 38.1511 13.5201L35.2178 16.3645C35.0933 16.489 34.9333 16.5512 34.7556 16.5512C34.5778 16.5512 34.4267 16.489 34.2933 16.3645L31.36 13.5201C31.2978 13.4667 31.2356 13.4312 31.1467 13.4312C31.0578 13.4312 30.9956 13.4578 30.9333 13.5201C30.8178 13.6267 30.8089 13.7512 30.8978 13.8845L30.9333 13.929L34.2578 17.1467C34.3822 17.2712 34.4533 17.449 34.4533 17.6267V25.1378H31.0845V24.9601C31.1467 24.1245 31.3867 21.6712 29.1822 18.9067L29.04 18.7378C28.4089 17.9912 27.9556 17.1467 27.6889 16.2045C27.4133 15.2623 27.3422 14.3112 27.4756 13.3423C27.5378 12.9156 27.6445 12.489 27.7867 12.0801C27.9289 11.6712 28.1067 11.2712 28.3111 10.889C28.5156 10.5067 28.7645 10.1512 29.04 9.8134C29.3156 9.47562 29.6178 9.16451 29.9556 8.88896C30.2845 8.60451 30.64 8.35562 31.0222 8.1334C31.3956 7.91118 31.7956 7.7334 32.2045 7.58229C32.6133 7.43118 33.0311 7.32451 33.4667 7.2534C33.8933 7.18229 34.3289 7.14673 34.7645 7.15562V7.13784ZM30.1067 25.1378V26.1334H39.4311V24.7467C39.3422 23.849 39.4311 22.9778 39.6889 22.1156C39.9467 21.2534 40.3467 20.4712 40.9067 19.769L41.0756 19.5645C41.7245 18.8356 42.2311 18.009 42.5778 17.0934C42.9245 16.1778 43.1022 15.2267 43.1022 14.249C43.1022 9.76007 39.3511 6.12451 34.7645 6.12451C30.56 6.12451 27.0222 9.20896 26.4978 13.1823C26.2222 15.3423 26.8 17.4667 28.1333 19.1645L28.2845 19.3512C29.7867 21.1556 30.2045 22.729 30.1333 24.489L30.1067 24.8978V25.1201V25.1378Z" fill="#545454"></path></g></g></g><mask id="mask21_1_5433" style="mask-type:luminance" maskUnits="userSpaceOnUse" x="43" y="3" width="10" height="23"><path d="M52.48 3.62671H43.3067V25.1734H52.48V3.62671Z" fill="white"></path></mask><g mask="url(#mask21_1_5433)"><mask id="mask22_1_5433" style="mask-type:luminance" maskUnits="userSpaceOnUse" x="43" y="3" width="10" height="23"><path d="M52.48 3.62671H43.3067V25.1734H52.48V3.62671Z" fill="white"></path></mask><g mask="url(#mask22_1_5433)"><mask id="mask23_1_5433" style="mask-type:luminance" maskUnits="userSpaceOnUse" x="43" y="3" width="10" height="23"><path d="M52.6933 3.80444H43.4311V25.1378H52.6933V3.80444Z" fill="white"></path></mask><g mask="url(#mask23_1_5433)"><path fill-rule="evenodd" clip-rule="evenodd" d="M44.9067 19.92L47.5822 22.6045C47.76 22.7823 47.8044 23.04 47.6711 23.1734C47.5378 23.3067 47.2889 23.2623 47.1022 23.0756L44.4267 20.4089C44.24 20.2223 44.2044 19.9645 44.3378 19.8312C44.4711 19.6978 44.72 19.7423 44.9067 19.9289V19.92ZM44.9067 9.2356L47.5822 6.55115C47.76 6.37337 47.8044 6.1156 47.6711 5.98226C47.5378 5.84893 47.2889 5.89337 47.1022 6.08004L44.4267 8.7556C44.24 8.94226 44.2044 9.20004 44.3378 9.32448C44.4711 9.45782 44.72 9.42226 44.9067 9.2356ZM45.0755 14.9156H51.4489C51.7422 14.9156 51.9822 14.7645 51.9822 14.5778C51.9822 14.3912 51.7422 14.24 51.4489 14.24H45.0755C44.7822 14.24 44.5422 14.3823 44.5422 14.5778C44.5422 14.7734 44.7822 14.9156 45.0755 14.9156Z" fill="#545454"></path></g></g><mask id="mask24_1_5433" style="mask-type:luminance" maskUnits="userSpaceOnUse" x="43" y="3" width="10" height="23"><path d="M52.48 3.62671H43.3067V25.1734H52.48V3.62671Z" fill="white"></path></mask><g mask="url(#mask24_1_5433)"><mask id="mask25_1_5433" style="mask-type:luminance" maskUnits="userSpaceOnUse" x="43" y="3" width="10" height="23"><path d="M52.6933 3.80444H43.4311V25.1378H52.6933V3.80444Z" fill="white"></path></mask><g mask="url(#mask25_1_5433)"><path fill-rule="evenodd" clip-rule="evenodd" d="M44.9067 19.92L47.5822 22.6045C47.76 22.7823 47.8044 23.04 47.6711 23.1734C47.5378 23.3067 47.2889 23.2623 47.1022 23.0756L44.4267 20.4089C44.24 20.2223 44.2044 19.9645 44.3378 19.8312C44.4711 19.6978 44.72 19.7423 44.9067 19.9289V19.92ZM44.9067 9.2356L47.5822 6.55115C47.76 6.37337 47.8044 6.1156 47.6711 5.98226C47.5378 5.84893 47.2889 5.89337 47.1022 6.08004L44.4267 8.7556C44.24 8.94226 44.2044 9.20004 44.3378 9.32448C44.4711 9.45782 44.72 9.42226 44.9067 9.2356ZM45.0755 14.9156H51.4489C51.7422 14.9156 51.9822 14.7645 51.9822 14.5778C51.9822 14.3912 51.7422 14.24 51.4489 14.24H45.0755C44.7822 14.24 44.5422 14.3823 44.5422 14.5778C44.5422 14.7734 44.7822 14.9156 45.0755 14.9156Z" fill="#545454"></path></g></g></g></g></svg>